<?xml version="1.0" standalone="no"?><!DOCTYPE svg PUBLIC "-//W3C//DTD SVG 1.1//EN" "http://www.w3.org/Graphics/SVG/1.1/DTD/svg11.dtd"><svg class="icon" width="200px" height="200.00px" viewBox="0 0 1024 1024" version="1.1" xmlns="http://www.w3.org/2000/svg"><path fill="#333333" d="M727.899188 473.53392c-4.592598 0-9.149381 0.148379-13.676487 0.412392l-50.779523-348.470553 124.430964 0c34.452673 0 71.532173 16.374946 71.532173 52.118008 0 13.060457-5.731538 25.421996-16.138562 34.634822-12.922311 11.437493-32.074509 17.483186-55.393611 17.483186-11.04966 0-20.008706 8.958022-20.008706 20.008706 0 11.050684 8.959046 20.008706 20.008706 20.008706 33.241079 0 61.568241-9.532097 81.917708-27.54638 18.832927-16.670681 29.632901-40.191374 29.632901-64.514339 0-24.322965-10.799974-47.853891-29.632901-64.524572-20.348444-18.015306-48.675606-27.577079-81.917708-27.577079L587.78401 85.566818c-11.04966 0-20.008706 8.903787-20.008706 19.954471s8.959046 19.954471 20.008706 19.954471l35.218106 0 38.350446 263.176958c-28.312836 5.465478-123.018801 28.897144-239.179404 113.158223-20.385283 14.786775-38.965453 30.568203-55.858192 46.735417L235.758492 273.854135l63.896262 0c11.04966 0 20.008706-8.903787 20.008706-19.954471s-8.959046-19.954471-20.008706-19.954471L137.582495 233.945193c-11.050684 0-20.008706 8.903787-20.008706 19.954471s8.958022 19.954471 20.008706 19.954471l53.927213 0c0.134053 0.325411 0.251733 0.654916 0.405229 0.976234L336.576665 579.204611c-4.835122 5.364171-9.494235 10.728342-13.980409 16.074094-23.435759-11.117199-49.622164-17.350157-77.239152-17.350157-99.710956 0-180.830485 81.120552-180.830485 180.830485s81.120552 180.830485 180.830485 180.830485 180.830485-81.120552 180.830485-180.830485c0-57.568137-27.04189-108.938108-69.088518-142.077879 24.26259-28.398794 53.634548-57.135278 88.572268-82.47848 106.884332-77.532841 195.115839-100.401688 221.464951-105.854886l7.481392 51.338249C571.716057 503.848343 494.870878 596.396155 494.870878 706.562231c0 128.492466 104.534821 233.028311 233.028311 233.028311s233.028311-104.534821 233.028311-233.028311S856.391654 473.53392 727.899188 473.53392zM386.170177 758.760057c0 77.644381-63.168692 140.813073-140.813073 140.813073S104.545054 836.403414 104.545054 758.760057 167.713746 617.946984 245.357104 617.946984c18.256806 0 35.713386 3.494591 51.736315 9.846252-47.602158 65.005526-69.019956 120.128985-70.436212 123.845633-3.931542 10.327206 1.252527 21.886473 11.579733 25.820062 2.342348 0.8913 4.750187 1.314948 7.116071 1.314948 8.063653 0 15.663748-4.910846 18.703991-12.894681 0.328481-0.861624 21.327748-54.909587 68.115354-117.913527C365.027647 673.767314 386.170177 713.841008 386.170177 758.760057zM727.899188 899.572106c-106.426915 0-193.009875-86.583984-193.009875-193.009875 0-90.045829 61.984726-165.881005 145.526421-187.094142l27.684526 189.979866c1.452071 9.955746 10.000771 17.125029 19.774369 17.125029 0.959861 0 1.932002-0.068562 2.911306-0.210801 10.93505-1.594311 18.506493-11.749602 16.914228-22.685675l-27.680433-189.951213c2.615571-0.105401 5.239328-0.173962 7.880481-0.173962 106.426915 0 193.009875 86.585007 193.009875 193.010899S834.32508 899.572106 727.899188 899.572106z" /></svg>