<?xml version="1.0" standalone="no"?><!DOCTYPE svg PUBLIC "-//W3C//DTD SVG 1.1//EN" "http://www.w3.org/Graphics/SVG/1.1/DTD/svg11.dtd"><svg class="icon" width="200px" height="200.00px" viewBox="0 0 1024 1024" version="1.1" xmlns="http://www.w3.org/2000/svg"><path fill="#333333" d="M825.941132 203.246007l-93.26208 0c-20.201088-67.086931-59.592236-139.03252-135.639237-139.03252-76.022441 0-115.693975 71.954799-136.161123 139.03252l-94.247524 0c-63.418378 0-117.42234 53.032844-117.42234 115.270327l0 195.814758-47.51313 0c-62.951751 0-116.215862 52.516074-116.215862 115.263164l0 217.47815c0 62.289672 52.178383 113.420189 116.215862 113.420189l375.801015 0c3.927449 0 7.801686-0.204661 11.614525-0.599657 1.502213 0.3776 3.062755 0.599657 4.675486 0.599657l232.154407 0c30.425963 0 58.415434-12.072967 78.896908-33.582863 20.026102-21.033036 31.008224-49.621141 31.008224-80.08599L935.846264 318.516334C935.846264 254.131955 887.62296 203.246007 825.941132 203.246007zM597.039815 104.230899c40.22719 0 71.724555 33.323966 93.666286 99.015108L502.901785 203.246007C525.124925 137.553842 556.780903 104.230899 597.039815 104.230899zM125.387755 847.072405 125.387755 629.594255c0-41.055045 35.047214-75.354222 76.30692-75.354222l65.149812 0c0.778736 0.170892 1.570775 0.312108 2.384303 0.390903 2.158153 0.208754 4.264117 0.055259 6.27082-0.390903l228.66698 0c1.414209 0.318248 2.873444 0.50449 4.372587 0.50449 0.594541 0 1.194198-0.027629 1.797949-0.079818 0.889253-0.078795 1.750877-0.23536 2.599198-0.424672l64.559365 0c39.427988 0 70.801533 32.883945 70.801533 75.354222l0 217.229486c0 41.727357-30.715559 72.736605-70.801533 72.736605L201.695698 919.560346C159.723771 919.560346 125.387755 887.295502 125.387755 847.072405zM295.16858 514.331092c2.75781-11.497868 7.213285-26.090215 14.237259-40.464597 18.311041-37.46938 45.521776-56.468083 80.880075-56.468083 35.310204 0 62.365396 18.96698 80.416518 56.377008 6.955412 14.414291 11.32493 29.05064 14.007015 40.556695L295.16858 514.332115zM895.937322 846.824765c0 41.727357-30.102598 72.736605-69.997214 72.736605L663.045111 919.561369c15.766079-19.61371 25.161053-44.895513 25.161053-72.736605L688.206164 629.594255c0-30.488385-11.200086-58.97109-31.193443-80.650855-20.73423-22.478967-49.095161-34.612309-79.517031-34.612309l-51.853995 0c-2.838651-14.485923-8.27957-35.605939-18.376533-56.856939-24.89397-52.398394-65.345264-80.094176-116.980271-80.094176-41.117466 0-75.232448 17.591657-100.144838 51.225685L290.140053 318.516334c0-40.545438 34.762735-74.338079 76.490092-74.338079l83.729983 0c-3.219321 15.086603-5.504364 28.910447-7.104815 40.35101-11.80179 5.958712-19.900236 18.184151-19.900236 32.308847 0 19.9821 16.198937 36.181037 36.181037 36.181037 19.9821 0 36.181037-16.198937 36.181037-36.181037 0-10.999518-4.91494-20.845771-12.662391-27.481911 1.788739-12.57848 4.456498-28.255531 8.348132-45.177945l210.616882 0c3.759627 16.687054 6.341429 32.18298 8.077979 44.679595-8.085142 6.635117-13.243629 16.70445-13.243629 27.979238 0 19.9821 16.198937 36.181037 36.181037 36.181037 19.9821 0 36.181037-16.198937 36.181037-36.181037 0-13.840216-7.774057-25.860994-19.191084-31.945573-1.557472-11.515265-3.800559-25.472138-6.991228-40.714284l82.908268 0c39.241746 0 69.997214 32.394804 69.997214 74.338079L895.939369 846.824765z" /></svg>