<?xml version="1.0" standalone="no"?><!DOCTYPE svg PUBLIC "-//W3C//DTD SVG 1.1//EN" "http://www.w3.org/Graphics/SVG/1.1/DTD/svg11.dtd"><svg class="icon" width="200px" height="200.00px" viewBox="0 0 1024 1024" version="1.1" xmlns="http://www.w3.org/2000/svg"><path fill="#333333" d="M168.562067 385.394511c-0.00614 0-0.010233 0-0.01535 0-27.293623 0-52.93256-10.219759-72.191182-29.479405-39.796378-39.796378-39.794331-104.356766 0.004093-144.157237l0 0c39.813774-39.809681 104.578824-39.72577 144.377248 0.072655 19.259646 19.259646 29.867238 44.948725 29.865191 72.248488 0 27.297716-10.607592 52.569286-29.867238 71.830979C221.48337 375.162472 195.850573 385.394511 168.562067 385.394511zM124.655068 240.250806c-24.197098 24.197098-24.199145 63.22702-0.004093 87.422072 11.703553 11.703553 27.293623 17.812691 43.901883 17.812691 0.002047 0 0.008186 0 0.010233 0 16.60212 0 32.181957-6.099928 43.8763-17.793248 11.703553-11.701506 18.147312-27.123754 18.147312-43.733037s-6.443759-32.116465-18.145266-43.817971C188.249455 215.944214 148.865469 216.042451 124.655068 240.250806L124.655068 240.250806zM809.965276 960.227558c-39.682791 0.002047-70.25918-13.849426-92.906993-41.908482-25.325805-31.379685-37.434587-77.682243-47.662533-122.416074-16.537651-72.310909-57.402361-108.974947-121.460306-108.974947-38.21537 0-166.772304-10.048867-216.504986-139.355885-21.400403-55.642275-23.020296-119.055536-4.445242-173.978427 20.482497-60.564377 64.159252-107.913778 122.986055-133.326565 72.037686-31.120788 153.880693-30.931476 230.466975 0.528026 78.881558 32.400944 141.753491 94.680383 172.495656 170.869622 20.454868 50.691519 24.76708 90.13588 28.573779 124.936477 3.870144 35.410488 7.215332 65.9879 27.368324 101.338013l0 0c72.828702 127.744429 54.704926 207.794603 37.418214 244.142439-19.358907 40.707121-55.689347 67.3929-102.300944 75.145467C831.979662 959.224718 820.639382 960.227558 809.965276 960.227558zM562.833759 257.101589c-33.425274 0-66.277496 6.628978-96.992031 19.898189-61.896722 26.741038-89.061408 74.259284-100.95018 109.412922-15.633049 46.222741-14.216793 99.727329 3.886517 146.794297 17.45965 45.39284 48.569182 77.871555 92.466971 96.534614 35.140335 14.939247 69.397556 17.171078 86.691431 17.171078 47.967478 0 132.597971 18.196431 160.467715 140.069129 20.718881 90.600461 41.064254 133.318378 101.065813 133.322471 8.491395 0 17.766642-0.855484 27.959795-2.550079 33.80799-5.623068 58.957787-23.901363 72.729441-52.859905 23.714098-49.862641 10.57587-125.362172-36.044938-207.135594l0 0c-24.264637-42.565445-28.208459-78.627778-32.383548-116.808356-3.695159-33.797757-7.516184-68.746734-25.901926-114.311489-26.732851-66.25396-81.620949-120.501468-150.590763-148.830677C631.637798 264.007883 596.936461 257.101589 562.833759 257.101589zM337.628624 232.463446c-38.061874 0-69.026096-30.965246-69.026096-69.026096s30.965246-69.026096 69.026096-69.026096 69.026096 30.965246 69.026096 69.026096S375.690498 232.463446 337.628624 232.463446zM337.628624 134.425595c-15.996322 0-29.010731 13.014408-29.010731 29.010731s13.014408 29.010731 29.010731 29.010731 29.010731-13.014408 29.010731-29.010731S353.624946 134.425595 337.628624 134.425595zM486.312968 173.697017c-29.581736 0-53.647851-24.068162-53.647851-53.649897s24.066115-53.647851 53.647851-53.647851 53.647851 24.066115 53.647851 53.647851S515.894703 173.697017 486.312968 173.697017zM486.312968 106.414635c-7.516184 0-13.632485 6.115278-13.632485 13.632485 0 7.518231 6.115278 13.634532 13.632485 13.634532 7.516184 0 13.632485-6.115278 13.632485-13.634532C499.94443 112.530936 493.829152 106.414635 486.312968 106.414635zM620.736517 160.435992c-24.270776 0-44.016493-19.745716-44.016493-44.016493s19.745716-44.016493 44.016493-44.016493 44.016493 19.745716 44.016493 44.016493S645.008316 160.435992 620.736517 160.435992zM748.785891 198.449771c-24.270776 0-44.016493-19.745716-44.016493-44.016493s19.745716-44.016493 44.016493-44.016493 44.016493 19.745716 44.016493 44.016493S773.056668 198.449771 748.785891 198.449771z" /></svg>